<svg viewBox="0 0 510 510" xmlns="http://www.w3.org/2000/svg" xmlns:xlink="http://www.w3.org/1999/xlink"><linearGradient id="a"><stop offset="0" stop-color="#fef0ae"/><stop offset="1" stop-color="#fbc56d"/></linearGradient><linearGradient id="g" gradientUnits="userSpaceOnUse" x1="72.721" x2="105.721" xlink:href="#a" y1="363.436" y2="408.936"/><linearGradient id="b"><stop offset="0" stop-color="#dc8758" stop-opacity="0"/><stop offset=".996" stop-color="#dc8758" stop-opacity=".996"/><stop offset="1" stop-color="#dc8758"/></linearGradient><linearGradient id="h" gradientUnits="userSpaceOnUse" x1="69.716" x2="121.716" xlink:href="#b" y1="392.617" y2="416.617"/><linearGradient id="i" gradientUnits="userSpaceOnUse" x1="38.872" x2="93.372" xlink:href="#a" y1="324.652" y2="365.152"/><linearGradient id="j" gradientUnits="userSpaceOnUse" x1="61.72" x2="103.053" xlink:href="#b" y1="369.953" y2="369.287"/><linearGradient id="k" gradientUnits="userSpaceOnUse" x1="148.363" x2="135.863" xlink:href="#a" y1="231.487" y2="288.987"/><linearGradient id="l" gradientUnits="userSpaceOnUse" x1="94.349" x2="126.349" xlink:href="#b" y1="237.278" y2="269.944"/><linearGradient id="m" gradientUnits="userSpaceOnUse" x1="75.128" x2="102.628" xlink:href="#a" y1="245.299" y2="331.299"/><linearGradient id="n" gradientUnits="userSpaceOnUse" x1="80.669" x2="116.002" xlink:href="#b" y1="292.128" y2="322.795"/><linearGradient id="o" gradientTransform="matrix(-1 0 0 1 1251.452 0)" gradientUnits="userSpaceOnUse" x1="814.174" x2="847.174" xlink:href="#a" y1="363.436" y2="408.936"/><linearGradient id="p" gradientTransform="matrix(-1 0 0 1 1251.452 0)" gradientUnits="userSpaceOnUse" x1="811.168" x2="863.168" xlink:href="#b" y1="392.617" y2="416.617"/><linearGradient id="q" gradientTransform="matrix(-1 0 0 1 1251.452 0)" gradientUnits="userSpaceOnUse" x1="780.324" x2="834.824" xlink:href="#a" y1="324.652" y2="365.152"/><linearGradient id="r" gradientTransform="matrix(-1 0 0 1 1251.452 0)" gradientUnits="userSpaceOnUse" x1="803.172" x2="844.505" xlink:href="#b" y1="369.953" y2="369.287"/><linearGradient id="s" gradientTransform="matrix(-1 0 0 1 1251.452 0)" gradientUnits="userSpaceOnUse" x1="889.815" x2="877.315" xlink:href="#a" y1="231.487" y2="288.987"/><linearGradient id="t" gradientTransform="matrix(-1 0 0 1 1251.452 0)" gradientUnits="userSpaceOnUse" x1="835.801" x2="867.801" xlink:href="#b" y1="237.278" y2="269.944"/><linearGradient id="u" gradientTransform="matrix(-1 0 0 1 1251.452 0)" gradientUnits="userSpaceOnUse" x1="816.58" x2="844.08" xlink:href="#a" y1="245.299" y2="331.299"/><linearGradient id="v" gradientTransform="matrix(-1 0 0 1 1251.452 0)" gradientUnits="userSpaceOnUse" x1="822.121" x2="857.454" xlink:href="#b" y1="292.128" y2="322.795"/><linearGradient id="w" gradientUnits="userSpaceOnUse" x1="156.954" x2="324.67" xlink:href="#a" y1="252.928" y2="420.644"/><linearGradient id="x" gradientUnits="userSpaceOnUse" x1="337.326" x2="170.272" xlink:href="#a" y1="433.3" y2="266.246"/><linearGradient id="y" gradientUnits="userSpaceOnUse" x1="175.891" x2="306.108" xlink:href="#a" y1="271.865" y2="402.082"/><linearGradient id="z" gradientUnits="userSpaceOnUse" x1="255" x2="255" xlink:href="#b" y1="397.502" y2="501.882"/><linearGradient id="A" gradientUnits="userSpaceOnUse" x1="350.243" x2="218.909" xlink:href="#b" y1="433.62" y2="350.953"/><linearGradient id="c"><stop offset="0" stop-color="#fbc56d"/><stop offset="1" stop-color="#c5715a"/></linearGradient><linearGradient id="B" gradientUnits="userSpaceOnUse" x1="221.874" x2="281.61" xlink:href="#c" y1="320.747" y2="380.482"/><linearGradient id="d"><stop offset="0" stop-color="#8c3d27" stop-opacity="0"/><stop offset="1" stop-color="#8c3d27"/></linearGradient><linearGradient id="C" gradientUnits="userSpaceOnUse" x1="290.793" x2="208.23" xlink:href="#d" y1="337.034" y2="371.166"/><linearGradient id="D" gradientUnits="userSpaceOnUse" x1="269.236" x2="224.034" xlink:href="#d" y1="366.334" y2="346.961"/><linearGradient id="E" gradientTransform="matrix(-1 0 0 1 2656.704 0)" gradientUnits="userSpaceOnUse" x1="2415.94" x2="2370.738" xlink:href="#d" y1="366.334" y2="346.961"/><linearGradient id="F" gradientUnits="userSpaceOnUse" x1="241.769" x2="270.827" xlink:href="#d" y1="368.601" y2="321.9"/><linearGradient id="G" gradientUnits="userSpaceOnUse" x1="266.003" x2="263.582" xlink:href="#d" y1="362.703" y2="317.04"/><linearGradient id="H" gradientUnits="userSpaceOnUse" x1="333.364" x2="272.031" xlink:href="#b" y1="283.792" y2="176.459"/><linearGradient id="I" gradientUnits="userSpaceOnUse" x1="262.112" x2="301.612" y1="56.676" y2="119.676"><stop offset="0" stop-color="#f9f5f3"/><stop offset="1" stop-color="#d8e8f0"/></linearGradient><linearGradient id="e"><stop offset="0" stop-color="#fd4755"/><stop offset="1" stop-color="#a72b2b"/></linearGradient><linearGradient id="J" gradientUnits="userSpaceOnUse" x1="222.713" x2="345.38" xlink:href="#e" y1="-20.62" y2="120.046"/><linearGradient id="f"><stop offset="0" stop-color="#a72b2b" stop-opacity="0"/><stop offset="1" stop-color="#42210b"/></linearGradient><linearGradient id="K" gradientUnits="userSpaceOnUse" x1="255" x2="255" xlink:href="#f" y1="66.5" y2="33.466"/><linearGradient id="L" gradientUnits="userSpaceOnUse" x1="196.655" x2="319.321" xlink:href="#e" y1="2.104" y2="142.77"/><linearGradient id="M" gradientUnits="userSpaceOnUse" x1="292.995" x2="310.065" xlink:href="#f" y1="107.005" y2="124.075"/><linearGradient id="N" gradientTransform="matrix(-1 0 0 1 1574 0)" gradientUnits="userSpaceOnUse" x1="1356.995" x2="1374.065" xlink:href="#f" y1="107.005" y2="124.075"/><linearGradient id="O" gradientUnits="userSpaceOnUse" x1="341.686" x2="136.626" xlink:href="#a" y1="177.612" y2="-27.448"/><linearGradient id="P" gradientUnits="userSpaceOnUse" x1="255" x2="255" xlink:href="#a" y1="81.667" y2="221.706"/><linearGradient id="Q" gradientUnits="userSpaceOnUse" x1="255" x2="255" xlink:href="#b" y1="163" y2="209.044"/><linearGradient id="R" gradientUnits="userSpaceOnUse" x1="302.267" x2="274.267" xlink:href="#b" y1="136.929" y2="165.429"/><linearGradient id="S" gradientUnits="userSpaceOnUse" x1="233.5" x2="286.53" xlink:href="#c" y1="168.5" y2="221.53"/><linearGradient id="T" gradientUnits="userSpaceOnUse" x1="276" x2="226.323" xlink:href="#c" y1="211" y2="161.323"/><linearGradient id="U" gradientUnits="userSpaceOnUse" x1="255" x2="255" xlink:href="#a" y1="11.333" y2="32.171"/><path d="M110.119 377.851c30.153 3.894 56.459 16.139 75.085 33.009 3.901 3.533 2.448 14.781-2.222 17.207-22.3 11.585-50.854 16.746-81.007 12.852S45.516 424.78 26.89 407.91c-3.901-3.533-2.448-14.781 2.222-17.207 22.3-11.585 50.854-16.746 81.007-12.852" fill="url(#g)"/><path d="M110.119 377.851c30.153 3.894 56.459 16.139 75.085 33.009 3.901 3.533 2.448 14.781-2.222 17.207-22.3 11.585-50.854 16.746-81.007 12.852S45.516 424.78 26.89 407.91c-3.901-3.533-2.448-14.781 2.222-17.207 22.3-11.585 50.854-16.746 81.007-12.852" fill="url(#h)"/><path d="M113.644 335.627c32.247 13.98 57.546 36.007 72.834 60.709 3.201 5.173-2.014 17.202-7.978 18.402-28.48 5.728-61.851 2.317-94.097-11.663-32.247-13.98-57.546-36.006-72.834-60.709-3.201-5.173 2.014-17.202 7.978-18.402 28.48-5.727 61.85-2.317 94.097 11.663" fill="url(#i)"/><path d="M113.644 335.627c32.247 13.98 57.546 36.007 72.834 60.709 3.201 5.173-2.014 17.202-7.978 18.402-28.48 5.728-61.851 2.317-94.097-11.663-32.247-13.98-57.546-36.006-72.834-60.709-3.201-5.173 2.014-17.202 7.978-18.402 28.48-5.727 61.85-2.317 94.097 11.663" fill="url(#j)"/><path d="M171.708 267.844c12.916 32.687 15.231 66.152 8.573 94.429-1.394 5.922-13.588 10.74-18.653 7.371-24.189-16.089-45.374-42.097-58.29-74.784s-15.231-66.152-8.573-94.429c1.394-5.922 13.588-10.74 18.653-7.371 24.189 16.088 45.374 42.096 58.29 74.784" fill="url(#k)"/><path d="M171.708 267.844c12.916 32.687 15.231 66.152 8.573 94.429-1.394 5.922-13.588 10.74-18.653 7.371-24.189-16.089-45.374-42.097-58.29-74.784s-15.231-66.152-8.573-94.429c1.394-5.922 13.588-10.74 18.653-7.371 24.189 16.088 45.374 42.096 58.29 74.784" fill="url(#l)"/><path d="M124.641 269.074c32.88 29.56 54.259 65.943 62.625 101.518 1.752 7.45-9.275 19.716-16.869 18.764-36.262-4.547-74.706-21.947-107.586-51.508C29.931 308.288 8.552 271.905.186 236.33c-1.752-7.45 9.275-19.716 16.869-18.764 36.261 4.547 74.706 21.948 107.586 51.508" fill="url(#m)"/><path d="M15.249 276.751c11.185 21.777 27.157 42.751 47.563 61.097 32.88 29.56 71.324 46.961 107.586 51.508 7.594.952 18.621-11.313 16.869-18.764-8.366-35.575-29.745-71.958-62.625-101.518-19.361-17.407-40.653-30.592-62.291-39.424z" fill="url(#n)"/><path d="M399.881 377.851c-30.153 3.894-56.459 16.139-75.085 33.009-3.901 3.533-2.448 14.781 2.222 17.207 22.3 11.585 50.854 16.746 81.007 12.852s56.459-16.139 75.085-33.009c3.901-3.533 2.448-14.781-2.222-17.207-22.3-11.585-50.854-16.746-81.007-12.852" fill="url(#o)"/><path d="M399.881 377.851c-30.153 3.894-56.459 16.139-75.085 33.009-3.901 3.533-2.448 14.781 2.222 17.207 22.3 11.585 50.854 16.746 81.007 12.852s56.459-16.139 75.085-33.009c3.901-3.533 2.448-14.781-2.222-17.207-22.3-11.585-50.854-16.746-81.007-12.852" fill="url(#p)"/><path d="M396.356 335.627c-32.247 13.98-57.546 36.007-72.834 60.709-3.201 5.173 2.014 17.202 7.978 18.402 28.48 5.728 61.851 2.317 94.097-11.663 32.247-13.98 57.546-36.006 72.834-60.709 3.201-5.173-2.014-17.202-7.978-18.402-28.48-5.727-61.85-2.317-94.097 11.663" fill="url(#q)"/><path d="M396.356 335.627c-32.247 13.98-57.546 36.007-72.834 60.709-3.201 5.173 2.014 17.202 7.978 18.402 28.48 5.728 61.851 2.317 94.097-11.663 32.247-13.98 57.546-36.006 72.834-60.709 3.201-5.173-2.014-17.202-7.978-18.402-28.48-5.727-61.85-2.317-94.097 11.663" fill="url(#r)"/><path d="M338.292 267.844c-12.916 32.687-15.231 66.152-8.573 94.429 1.394 5.922 13.588 10.74 18.653 7.371 24.189-16.089 45.374-42.097 58.29-74.784s15.231-66.152 8.573-94.429c-1.394-5.922-13.588-10.74-18.653-7.371-24.189 16.088-45.374 42.096-58.29 74.784" fill="url(#s)"/><path d="M338.292 267.844c-12.916 32.687-15.231 66.152-8.573 94.429 1.394 5.922 13.588 10.74 18.653 7.371 24.189-16.089 45.374-42.097 58.29-74.784s15.231-66.152 8.573-94.429c-1.394-5.922-13.588-10.74-18.653-7.371-24.189 16.088-45.374 42.096-58.29 74.784" fill="url(#t)"/><path d="M385.359 269.074c-32.88 29.56-54.259 65.943-62.625 101.518-1.752 7.45 9.275 19.716 16.869 18.764 36.262-4.547 74.706-21.947 107.586-51.508 32.88-29.56 54.259-65.943 62.625-101.518 1.752-7.45-9.275-19.716-16.869-18.764-36.261 4.547-74.706 21.948-107.586 51.508" fill="url(#u)"/><path d="M494.751 276.751c-11.185 21.777-27.157 42.751-47.563 61.097-32.88 29.56-71.324 46.961-107.586 51.508-7.594.952-18.621-11.313-16.869-18.764 8.366-35.575 29.745-71.958 62.625-101.518 19.361-17.407 40.653-30.592 62.291-39.424z" fill="url(#v)"/><circle cx="255" cy="350.974" fill="url(#w)" r="159.026"/><circle cx="255" cy="350.974" fill="url(#x)" r="126.755"/><circle cx="255" cy="350.974" fill="url(#y)" r="108.82"/><path d="M95.974 350.974C95.974 438.802 167.172 510 255 510s159.026-71.198 159.026-159.026c0-.617-.016-1.23-.023-1.846H95.997c-.007.616-.023 1.229-.023 1.846" fill="url(#z)"/><path d="M299.601 503.65c50.109-14.614 89.983-53.219 106.356-102.552l-77.453-77.453-17.461.857-47.126-47.126-57.435 133.155z" fill="url(#A)"/><path d="m320.208 316.419-31.187-7.535a11.98 11.98 0 0 1-7.109-4.932l-17.978-26.575c-2.175-3.214-5.506-4.939-8.934-5.217-3.428.278-6.76 2.003-8.934 5.217l-17.978 26.575a11.98 11.98 0 0 1-7.109 4.932l-31.187 7.535c-8.46 2.044-11.985 12.141-6.637 19.007l19.719 25.31a11.98 11.98 0 0 1 2.494 8.285l-2.471 31.989c-.67 8.677 7.843 15.151 16.026 12.185l30.165-10.932A11.96 11.96 0 0 1 255 401.7a12 12 0 0 1 5.912.563l30.165 10.932c8.182 2.965 16.696-3.508 16.026-12.185l-2.471-31.989c-.23-2.976.66-5.93 2.494-8.285l19.719-25.31c5.348-6.866 1.823-16.963-6.637-19.007" fill="url(#B)"/><path d="m260.912 402.263 30.165 10.932c8.182 2.965 16.696-3.508 16.026-12.185l-2.471-31.989c-.23-2.976.66-5.93 2.494-8.285l19.719-25.31c5.349-6.865 1.823-16.963-6.637-19.007l-31.187-7.535a11.98 11.98 0 0 1-7.109-4.932l-17.978-26.575c-2.175-3.214-5.506-4.939-8.934-5.217V401.7a11.96 11.96 0 0 1 5.912.563" fill="url(#C)"/><path d="m320.208 316.419-31.187-7.535a12 12 0 0 1-3.02-1.185l-79.502 102.833c3.119 3.014 7.824 4.331 12.424 2.664l30.165-10.932a11.96 11.96 0 0 1 5.912-.563 12 12 0 0 1 5.912.563l30.165 10.932c8.182 2.965 16.696-3.508 16.026-12.185l-2.471-31.989c-.23-2.976.66-5.93 2.494-8.285l19.719-25.31c5.348-6.867 1.823-16.964-6.637-19.008" fill="url(#D)"/><path d="m189.792 316.419 31.187-7.535a12 12 0 0 0 3.02-1.185l79.502 102.833c-3.119 3.014-7.824 4.331-12.424 2.664l-30.165-10.932a11.96 11.96 0 0 0-5.912-.563 12 12 0 0 0-5.912.563l-30.165 10.932c-8.182 2.965-16.696-3.508-16.026-12.185l2.471-31.989c.23-2.976-.66-5.93-2.494-8.285l-19.719-25.31c-5.348-6.867-1.823-16.964 6.637-19.008" fill="url(#E)"/><path d="M181.491 323.646c-1.483 3.74-1.127 8.197 1.664 11.78l19.719 25.31a11.98 11.98 0 0 1 2.494 8.285l-2.471 31.989c-.67 8.677 7.843 15.151 16.026 12.185l30.165-10.932A11.96 11.96 0 0 1 255 401.7a12 12 0 0 1 5.912.563l30.165 10.932c8.182 2.965 16.696-3.508 16.026-12.185l-2.471-31.989a12 12 0 0 1 .633-4.831z" fill="url(#F)"/><path d="M328.521 323.646c1.483 3.74 1.128 8.197-1.664 11.78l-19.719 25.31a11.98 11.98 0 0 0-2.494 8.285l2.471 31.989c.67 8.677-7.844 15.151-16.026 12.185l-30.165-10.932a11.96 11.96 0 0 0-5.912-.563 12 12 0 0 0-5.912.563l-30.165 10.932c-8.182 2.965-16.696-3.508-16.026-12.185l2.471-31.989a12 12 0 0 0-.633-4.831z" fill="url(#G)"/><path d="M255 191.948c-.66 0-1.315.017-1.973.025l-24.542 24.542 179.161 179.161a159 159 0 0 0 6.38-44.703c0-87.827-71.198-159.025-159.026-159.025" fill="url(#H)"/><path d="M159 3.333v84l96 96 96-96v-84z" fill="url(#I)"/><path d="M159 3.333v26.142l95.679 95.679a.454.454 0 0 0 .642 0L351 29.475V3.333z" fill="url(#J)"/><path d="M159 3.333v26.142l95.679 95.679a.454.454 0 0 0 .642 0L351 29.475V3.333z" fill="url(#K)"/><path d="M255 140.28a15.4 15.4 0 0 1-10.927-4.519L159 50.688v36.646l96 96 96-96V50.688l-85.073 85.073A15.4 15.4 0 0 1 255 140.28" fill="url(#L)"/><path d="M255 140.28a15.4 15.4 0 0 1-10.927-4.519L159 50.688v36.646l96 96 96-96V50.688l-85.073 85.073A15.4 15.4 0 0 1 255 140.28" fill="url(#M)"/><path d="M255 140.28c3.958 0 7.915-1.506 10.927-4.519L351 50.688v36.646l-96 96-96-96V50.688l85.073 85.073A15.4 15.4 0 0 0 255 140.28" fill="url(#N)"/><path d="m244.473 161.527-81.694-81.694c-6.126-6.126-16.059-6.126-22.185 0s-6.126 16.059 0 22.185L255 216.426l114.407-114.407c6.126-6.126 6.126-16.059 0-22.185s-16.059-6.126-22.185 0l-81.694 81.694c-5.815 5.814-15.241 5.814-21.055-.001" fill="url(#O)"/><path d="M140.593 80.019 242.954 182.38c6.653 6.653 17.44 6.653 24.093 0l102.36-102.361c.03-.03.054-.063.084-.093-.029-.03-.054-.063-.084-.093-6.126-6.126-16.059-6.126-22.185 0l-81.694 81.694c-5.814 5.814-15.241 5.814-21.055 0l-81.694-81.694c-6.126-6.126-16.059-6.126-22.185 0-.03.03-.054.063-.084.093.029.03.053.063.083.093" fill="url(#P)"/><path d="m255 216.426 80.759-80.759h-44.371l-25.861 25.861c-5.814 5.814-15.241 5.814-21.055 0l-25.861-25.861H174.24z" fill="url(#Q)"/><path d="m245 206.426 10 10L357.426 114h-44.371l-47.527 47.527c-5.645 5.645-14.684 5.792-20.528.477z" fill="url(#R)"/><circle cx="255" cy="190" fill="url(#S)" r="37.498"/><circle cx="255" cy="190" fill="url(#T)" r="21.498"/><path d="M365.502 37.333H144.498c-6.35 0-11.498-5.148-11.498-11.498V11.498C133 5.148 138.148 0 144.498 0h221.005C371.852 0 377 5.148 377 11.498v14.338c0 6.35-5.148 11.497-11.498 11.497" fill="url(#U)"/></svg>