<svg xmlns="http://www.w3.org/2000/svg" viewBox="0 0 512 512"><path d="M460.049 111.809a7.594 7.594 0 0 0-7.594 7.594v19.744a7.594 7.594 0 0 0 15.188 0v-19.744c0-4.194-3.4-7.594-7.594-7.594m0 53.156a7.594 7.594 0 0 0-7.594 7.594v19.744a7.594 7.594 0 0 0 15.188 0V172.56c0-4.194-3.4-7.595-7.594-7.595m36.451-16.706h-19.744a7.594 7.594 0 0 0 0 15.188H496.5a7.594 7.594 0 0 0 0-15.188m-53.157 0h-19.744a7.594 7.594 0 0 0 0 15.188h19.744a7.594 7.594 0 0 0 0-15.188M52.51 1.84a7.594 7.594 0 0 0-7.594 7.594v19.744a7.594 7.594 0 0 0 15.188 0V9.434c0-4.194-3.4-7.594-7.594-7.594m0 53.157a7.594 7.594 0 0 0-7.594 7.594v19.744a7.594 7.594 0 0 0 15.188 0V62.591c0-4.194-3.4-7.594-7.594-7.594M88.96 38.29H69.216a7.594 7.594 0 0 0 0 15.188H88.96a7.594 7.594 0 0 0 0-15.188m-53.157 0H16.059a7.594 7.594 0 0 0 0 15.188h19.744a7.594 7.594 0 0 0 0-15.188m232.023 113.258c-24.181-1.427-49.617-1.581-73.987-.456a7.594 7.594 0 0 0 .7 15.172c23.841-1.102 48.739-.95 72.392.445q.23.014.454.014a7.595 7.595 0 0 0 .441-15.175"/><path d="M374.096 167.922a7.595 7.595 0 0 0-4.07 14.633c41.811 11.63 67.783 28.388 67.783 43.733 0 14.231-21.976 29.587-58.785 41.08-40.632 12.686-94.8 19.674-152.525 19.674s-111.893-6.987-152.525-19.674c-36.81-11.492-58.786-26.849-58.786-41.079 0-11.728 15.122-21.859 24.136-26.855 17.108-9.483 41.959-17.614 71.862-23.515a7.595 7.595 0 0 0-2.941-14.901C39.454 174.591 0 198.381 0 226.288c0 15.463 12.049 37.656 69.446 55.579 42.059 13.132 97.834 20.364 157.052 20.364s114.993-7.233 157.052-20.364c57.398-17.921 69.446-40.116 69.446-55.579.001-23.484-28.02-44.212-78.9-58.366"/><path d="m348.682 213.049-.236-.056a7.59 7.59 0 0 0-9.137 5.644 7.59 7.59 0 0 0 1.922 7.018c-32.808 7.33-73.359 11.352-114.732 11.352-41.37-.001-81.923-4.023-114.732-11.353a7.596 7.596 0 0 0-7.205-12.664l-.254.06c-6.259 1.478-10.464 6.798-10.464 13.237s4.205 11.759 10.463 13.237l.252.06c34.543 8.132 77.849 12.612 121.94 12.612s87.397-4.479 121.947-12.613l.245-.058c6.259-1.478 10.463-6.797 10.463-13.237 0-6.438-4.205-11.757-10.472-13.239m10.086 79.868a7.594 7.594 0 0 0-7.594 7.594V462.89c0 13.743-48.569 33.704-124.676 33.704s-124.676-19.962-124.676-33.704v-31.526a7.594 7.594 0 0 0-15.188 0v31.525c0 14.844 15.24 27.45 44.072 36.451 25.695 8.023 59.715 12.441 95.793 12.441s70.098-4.419 95.793-12.441c28.832-9.002 44.072-21.607 44.072-36.451V300.512a7.597 7.597 0 0 0-7.596-7.595m-264.541 0a7.594 7.594 0 0 0-7.594 7.594v105.537a7.594 7.594 0 0 0 15.188 0V300.512a7.594 7.594 0 0 0-7.594-7.595"/><path d="m510.635 51.049-17.374-24.916a7.595 7.595 0 0 0-10.573-1.886L250.962 185.815a7.596 7.596 0 0 0-1.886 10.572l17.374 24.916a7.59 7.59 0 0 0 6.236 3.251c1.5 0 3.014-.443 4.337-1.365L508.75 61.622a7.59 7.59 0 0 0 1.885-10.573m-236.07 155.34-8.687-12.458L485.146 41.049l8.687 12.458zm76.534-149.854-15.99-3.242a32.36 32.36 0 0 1-25.335-25.335l-3.242-15.99C305.13 5.051 299.222.22 292.165.22s-12.966 4.831-14.368 11.748l-3.242 15.99a32.36 32.36 0 0 1-25.335 25.335l-15.99 3.242c-6.917 1.402-11.748 7.312-11.748 14.368 0 7.058 4.831 12.965 11.748 14.367l15.99 3.242a32.36 32.36 0 0 1 25.335 25.335l3.242 15.99c1.402 6.917 7.312 11.748 14.368 11.748 7.058 0 12.966-4.831 14.367-11.748l3.242-15.99a32.36 32.36 0 0 1 25.335-25.335l15.99-3.242c6.917-1.402 11.748-7.31 11.748-14.367s-4.831-12.966-11.748-14.368m-19.007 17.092a47.53 47.53 0 0 0-37.204 37.204l-2.726 13.435-2.723-13.435a47.53 47.53 0 0 0-37.204-37.204L238.8 70.901l13.435-2.723a47.53 47.53 0 0 0 37.204-37.204l2.725-13.435 2.724 13.435a47.53 47.53 0 0 0 37.204 37.204l13.435 2.725zM219.29 105.046l-19.364-3.926a40.79 40.79 0 0 1-31.931-31.931l-3.926-19.364c-1.545-7.62-8.054-12.942-15.828-12.942-7.775 0-14.284 5.322-15.829 12.942l-3.926 19.364a40.79 40.79 0 0 1-31.931 31.931l-19.365 3.926c-7.62 1.545-12.942 8.055-12.942 15.829s5.321 14.284 12.942 15.829l19.365 3.926a40.79 40.79 0 0 1 31.931 31.932l3.926 19.364c1.545 7.62 8.054 12.942 15.829 12.942 7.774 0 14.283-5.321 15.828-12.942l3.926-19.364a40.79 40.79 0 0 1 31.931-31.932l19.364-3.926c7.62-1.545 12.942-8.054 12.942-15.829s-5.322-14.284-12.942-15.829m-3.017 16.773-19.364 3.926a55.95 55.95 0 0 0-43.8 43.8l-3.926 19.364c-.073.361-.156.771-.943.771s-.87-.409-.944-.771l-3.926-19.364a55.95 55.95 0 0 0-43.8-43.8l-19.365-3.926c-.361-.073-.771-.156-.771-.944s.409-.87.771-.944l19.365-3.926a55.95 55.95 0 0 0 43.8-43.8l3.926-19.364c.073-.362.156-.772.944-.772s.87.41.943.772l3.926 19.364a55.95 55.95 0 0 0 43.8 43.799l19.364 3.926c.362.073.772.156.772.944s-.411.871-.772.945"/></svg>