<svg xmlns="http://www.w3.org/2000/svg" viewBox="0 0 504.125 504.125"><path style="fill:#3a7f0d" d="M339.772 0s44.536 108.954-146.337 182.138C89.719 221.893 10.059 323.789 105.173 481.193c7.877-70.357 41.653-225.485 186.888-260.884 0 0-135.176 50.546-147.117 279.347 69.459 9.752 232.361 16.305 280.726-125.062C489.536 187.817 339.772 0 339.772 0"/><path style="fill:#49a010" d="M145.007 498.704c147.456-58.849 254.748-196.71 269.556-361.283C384.418 56.107 339.772 0 339.772 0s44.536 108.954-146.337 182.138C89.719 221.893 10.059 323.789 105.173 481.193c7.877-70.357 41.653-225.485 186.888-260.884-.008.001-134.782 50.421-147.054 278.395"/><circle style="fill:#3a7f0d" cx="90.459" cy="171.985" r="13.785"/><circle style="fill:#49a010" cx="133.782" cy="158.2" r="9.846"/><circle style="fill:#49a010" cx="124.921" cy="64.662" r="24.615"/><circle style="fill:#49a010" cx="200.736" cy="120.785" r="7.877"/><circle style="fill:#49a010" cx="266.713" cy="76.477" r="22.646"/></svg>