<svg viewBox="0 0 512 512" xmlns="http://www.w3.org/2000/svg"><path d="M317.505 0h-41.004c-45.291 0-82.007 36.716-82.007 82.007v50.989H256c45.291 0 82.007-36.716 82.007-82.007V20.502C338.007 9.179 328.828 0 317.505 0" fill="#ba8b68"/><path d="M327.756 204.474H184.244c-28.307 0-51.254-22.947-51.254-51.254s22.947-51.254 51.254-51.254h143.512c28.307 0 51.254 22.947 51.254 51.254s-22.947 51.254-51.254 51.254" fill="#ddaf89"/><path d="M256 153.22c0-28.307 22.947-51.254 51.254-51.254h-123.01c-28.307 0-51.254 22.947-51.254 51.254s22.947 51.254 51.254 51.254h123.01c-28.307 0-51.254-22.947-51.254-51.254" fill="#c9a07d"/><path d="M389.261 337.735H122.739c-39.63 0-71.756-32.126-71.756-71.756s32.126-71.756 71.756-71.756h266.523c39.63 0 71.756 32.126 71.756 71.756-.001 39.63-32.127 71.756-71.757 71.756" fill="#c9a07d"/><path d="M199.642 265.979c0-39.63 32.126-71.756 71.756-71.756H122.739c-39.63 0-71.756 32.126-71.756 71.756s32.126 71.756 71.756 71.756h148.659c-39.63 0-71.756-32.126-71.756-71.756" fill="#ba8b68"/><path d="M418.476 512H93.524c-50.952 0-92.258-41.305-92.258-92.258s41.305-92.258 92.258-92.258h324.953c50.953 0 92.258 41.305 92.258 92.258-.001 50.953-41.306 92.258-92.259 92.258" fill="#ddaf89"/><path d="M124.276 419.742c0-50.953 41.305-92.258 92.258-92.258H93.524c-50.953 0-92.258 41.305-92.258 92.258S42.571 512 93.524 512h123.01c-50.952 0-92.258-41.305-92.258-92.258" fill="#c9a07d"/><ellipse cx="174.357" cy="428.218" fill="#fff" rx="30.125" ry="23.99"/><ellipse cx="337.643" cy="428.218" fill="#fff" rx="30.125" ry="23.99"/><path d="M280.288 409.786c0-15.01-10.874-16.421-24.288-16.421s-24.288 1.41-24.288 16.421 10.874 27.178 24.288 27.178 24.288-12.168 24.288-27.178m-100.894-2.709a7.5 7.5 0 0 1-7.5-7.5v-12.301c0-4.143 3.357-7.5 7.5-7.5s7.5 3.357 7.5 7.5v12.301a7.5 7.5 0 0 1-7.5 7.5m153.212 0a7.5 7.5 0 0 1-7.5-7.5v-12.301c0-4.143 3.357-7.5 7.5-7.5s7.5 3.357 7.5 7.5v12.301c0 4.143-3.357 7.5-7.5 7.5" fill="#495059"/></svg>