<svg viewBox="0 0 512 512" xmlns="http://www.w3.org/2000/svg"><path d="M236.89 155.521c-30.701 21.73-91.929 62.784-130.689 74.22-12.93-14.85-24.75-32.83-34.41-53.18-33.87-71.39-28.22-144.969 12.63-164.349 40.84-19.38 101.41 22.78 135.279 94.17 7.82 16.5 13.54 33.109 17.19 49.139" fill="#d7ddf5"/><path d="M207.08 270.731c-29.2 13.85-68.49-3.74-100.88-40.99 3.05-3.81 6.23-7.53 9.54-11.14 33.29-36.28 75.74-58.25 121.15-63.08 12.19 53.36 1.59 100.31-29.81 115.21" fill="#adc0ed"/><path d="M196.17 164.711c-7.28 17.155-31.158 29.836-61.59 35.69-2.78-5.16-5.5-10.52-8.12-16.05-26.66-56.18-33.78-108.59-15.91-117.069 17.86-8.48 53.96 30.19 80.61 86.38 1.76 3.699 3.43 7.389 5.01 11.049" fill="#ffabcd"/><path d="M207.08 270.731c-16.11 7.65-47.04-23.03-72.5-70.33 18.69-15.93 39.5-27.96 61.59-35.69 22.48 51.85 27.59 98.1 10.91 106.02" fill="#ff83b4"/><path d="M440.209 176.561c-9.66 20.35-21.48 38.33-34.41 53.18-42.235-11.441-100.786-45.23-130.69-74.22 3.65-16.03 9.37-32.64 17.19-49.14 33.87-71.39 94.44-113.549 135.28-94.17 40.85 19.381 46.5 92.961 12.63 164.35" fill="#d7ddf5"/><path d="M405.799 229.741c-32.39 37.25-71.68 54.84-100.88 40.99-31.4-14.9-42-61.85-29.81-115.21 45.41 4.83 87.86 26.8 121.15 63.08 3.31 3.61 6.49 7.33 9.54 11.14" fill="#adc0ed"/><path d="M385.54 184.351c-2.62 5.53-5.34 10.89-8.12 16.05-27.699 0-51.817-13.09-61.59-35.7q2.37-5.49 5.01-11.04c26.65-56.19 62.75-94.859 80.61-86.38 17.869 8.481 10.749 60.89-15.91 117.07" fill="#ffabcd"/><path d="M377.419 200.401c-25.46 47.3-56.39 77.98-72.5 70.33-16.68-7.92-11.57-54.18 10.91-106.03 22.091 7.74 42.901 19.77 61.59 35.7" fill="#ff83b4"/><path d="M423.099 362.471c0 81.03-57.68 129.259-134.219 139.819-133.279-44.799-154.299-237.759-61.57-314.979 9.32-1.84 18.91-2.8 28.69-2.8 92.29 0 167.099 85.67 167.099 177.96" fill="#e8ecf9"/><path d="M288.88 502.29c-10.63 1.47-21.63 2.21-32.88 2.21-92.29 0-167.099-49.75-167.099-142.029 0-82.51 59.79-159.719 138.409-175.159-56.78 90.999-45.36 233.298 61.57 314.978" fill="#d7ddf5"/><g fill="#ffa1ac"><ellipse cx="175.972" cy="354.448" rx="23.515" ry="29.529" transform="rotate(-89.89 175.922 354.43)"/><ellipse cx="336.028" cy="354.798" rx="23.515" ry="29.529" transform="rotate(-89.89 335.962 354.795)"/></g><path d="M446.973 179.8c16.931-35.685 24.888-73.138 22.405-105.46-2.6-33.835-16.305-58.293-38.593-68.868-22.286-10.575-49.902-5.719-77.752 13.666-26.605 18.52-50.582 48.372-67.514 84.058-11.581 24.408-19.011 49.838-21.701 74.032a159 159 0 0 0-7.818-.198 159 159 0 0 0-7.817.202c-2.69-24.195-10.12-49.627-21.701-74.037-10.712-22.578-24.619-43.359-40.217-60.096a7.499 7.499 0 1 0-10.973 10.225c14.562 15.625 27.578 35.093 37.639 56.299 10.844 22.857 17.802 46.578 20.324 69.066a158 158 0 0 0-21.668 4.736c-3.845-10.879-8.412-21.933-13.645-32.962-25.58-53.915-64.916-102.121-90.601-89.932-25.686 12.187-13.229 73.143 12.352 127.058 6.408 13.506 13.418 26.19 20.877 37.799a194 194 0 0 0-8.243 8.437 191 191 0 0 0-5.505 6.278c-18.768-16.973-35.736-40.375-48.243-66.736-15.829-33.362-23.287-68.124-21.001-97.882 2.17-28.243 12.848-48.296 30.067-56.466 17.154-8.137 39.359-3.781 62.524 12.27a7.501 7.501 0 0 0 8.543-12.329C130.946-.273 103.425-5.066 81.216 5.472 58.929 16.047 45.223 40.504 42.623 74.34c-2.483 32.321 5.474 69.774 22.405 105.46 13.515 28.486 32.028 53.84 52.577 72.191-23.193 32.412-36.19 71.584-36.19 110.486 0 46.085 17.905 84.638 51.779 111.493C164.127 498.494 207.741 512 256 512s91.872-13.506 122.807-38.029c33.874-26.854 51.779-65.408 51.779-111.493 0-3.439-.113-7.068-.338-10.785a7.494 7.494 0 0 0-7.937-7.034 7.5 7.5 0 0 0-7.035 7.937c.206 3.418.311 6.743.311 9.883 0 81.72-62.641 134.524-159.586 134.524S96.413 444.197 96.413 362.477c0-90.799 74.573-170.447 159.587-170.447 69.723 0 134.463 53.604 153.938 127.458a7.5 7.5 0 0 0 9.163 5.339 7.497 7.497 0 0 0 5.339-9.163c-6.019-22.826-16.333-44.513-30.051-63.668 20.552-18.352 39.066-43.708 52.584-72.196m-313.73 1.363c-12.569-26.492-21.091-52.85-23.995-74.217-2.709-19.932.319-30.866 4.522-32.86 4.205-1.996 14.589 2.576 28.313 17.281 14.713 15.765 29.739 39.037 42.308 65.529 4.992 10.521 9.347 21.052 13.01 31.403-16.131 6.405-31.435 15.467-45.48 26.976-6.64-10.526-12.91-21.955-18.678-34.112m226.816 34.143c-14.155-11.57-29.431-20.609-45.465-26.995 3.665-10.355 8.021-20.89 13.015-31.415 12.569-26.492 27.595-49.764 42.308-65.528 13.726-14.707 24.109-19.274 28.312-17.282 4.203 1.994 7.232 12.929 4.522 32.86-2.904 21.368-11.426 47.725-23.996 74.217-5.772 12.169-12.048 23.608-18.696 34.143m11.368 10.09c7.461-11.611 14.472-24.297 20.881-37.804 25.58-53.915 38.037-114.871 12.352-127.058-25.695-12.189-65.022 36.018-90.602 89.932-5.231 11.025-9.797 22.076-13.641 32.952a157 157 0 0 0-21.67-4.736c2.523-22.486 9.48-46.203 20.324-69.056C314.9 76.264 337.106 48.5 361.602 31.45c23.248-16.184 45.536-20.595 62.754-12.426 17.218 8.17 27.897 28.223 30.067 56.466 2.286 29.758-5.172 64.519-21.001 97.882-12.509 26.366-29.481 49.772-48.253 66.746a191 191 0 0 0-13.742-14.722"/><path d="M185.97 324.946v11.999a7.5 7.5 0 0 0 14.998 0v-11.999a7.5 7.5 0 0 0-14.998 0m124.888 0v11.999a7.5 7.5 0 0 0 14.998 0v-11.999c0-4.142-3.357-7.499-7.499-7.499s-7.499 3.357-7.499 7.499m-69.217 36.712a6.963 6.963 0 0 1-6.955-6.955 7.5 7.5 0 0 0-14.998 0c0 12.106 9.848 21.954 21.954 21.954 5.533 0 10.59-2.061 14.455-5.451a21.85 21.85 0 0 0 14.455 5.451c12.106 0 21.953-9.848 21.953-21.954a7.5 7.5 0 0 0-14.998 0 6.963 6.963 0 0 1-6.955 6.955 6.963 6.963 0 0 1-6.956-6.955v-13.708h2.811a7.5 7.5 0 0 0 0-14.998h-20.621a7.5 7.5 0 0 0 0 14.998h2.811v13.708c-.001 3.835-3.121 6.955-6.956 6.955"/></svg>