<svg viewBox="0 0 512 512" xmlns="http://www.w3.org/2000/svg"><path d="M110.821 240.8a8 8 0 0 0-8 8v8h-8c0-8.836-7.164-16-16-16v48h24v8a8 8 0 0 0 8 8h40v-64z" fill="#f0915a"/><path d="M62.821 240.8h16a8 8 0 0 1 8 8v32a8 8 0 0 1-8 8h-16a8 8 0 0 1-8-8v-32a8 8 0 0 1 8-8" fill="#fab991"/><path d="M342.821 448.8c0-8.189-3.124-16.379-9.373-22.627l-54.627-54.627V304.8h-128v18.746l-38.627 38.627a32 32 0 0 0-9.373 22.627v64z" fill="#aac3d7"/><path d="M86.821 496.8h64c8.837 0 16-7.163 16-16v-32h-64c-17.673 0-32 14.327-32 32 0 8.837 7.163 16 16 16m192-192h-128v-112c0-17.673 14.327-32 32-32h112v63.778a80 80 0 0 1-13.436 44.376l-2.564 3.846z" fill="#f0915a"/><path d="M134.821 200.8v40c0 8.837 7.163 16 16 16h8c8.837 0 16-7.163 16-16v-40a8 8 0 0 0-8-8h-24a8 8 0 0 0-8 8m56 0v40c0 8.837 7.163 16 16 16h8c8.837 0 16-7.163 16-16v-40a8 8 0 0 0-8-8h-24a8 8 0 0 0-8 8m-48-24h56c8.837 0 16-7.163 16-16v-72c0-13.255-10.745-24-24-24h-40c-13.255 0-24 10.745-24 24v72c0 8.837 7.163 16 16 16" fill="#fab991"/><path d="M182.821 48.8h-40c-13.255 0-24 10.745-24 24v8a8 8 0 0 0 8 8h39.916a8 8 0 0 1 8 7.979l.084 32.021h-48a8 8 0 0 0-8 8v60a4 4 0 0 1-8 0v-2.667a4 4 0 0 0-8 0V208.8c0 8.836 7.164 16 16 16h24c26.51 0 48-21.49 48-48h24c8.836 0 16-7.164 16-16v-64c0-26.51-21.49-48-48-48" fill="#d7e6f0"/><path d="M190.821 144.8a8 8 0 0 1-8-8v-16a8 8 0 0 1 8-8c8.837 0 16 7.163 16 16s-7.163 16-16 16m-36 8h-16a4 4 0 0 1 0-8h16a4 4 0 0 1 0 8" fill="#f0915a"/><path d="M228.154 62.133h-21.333V60.8c0-6.627-5.373-12-12-12h-4v4c0 3.772 1.744 7.133 4.465 9.333h-12.465V60.8c0-6.627-5.373-12-12-12h-4v4c0 3.772 1.744 7.133 4.465 9.333h-12.465V60.8c0-6.627-5.373-12-12-12h-4v4c0 3.772 1.744 7.133 4.465 9.333h-12.465V60.8c0-6.627-5.373-12-12-12h-4v4c0 6.627 5.373 12 12 12-6.627 0-12 5.373-12 12v4h4c6.627 0 12-5.373 12-12v-1.333h12.465a11.97 11.97 0 0 0-4.465 9.333v4h4c6.627 0 12-5.373 12-12v-1.333h12.465a11.97 11.97 0 0 0-4.465 9.333v4h4c6.627 0 12-5.373 12-12v-1.333h12.465a11.97 11.97 0 0 0-4.465 9.333v4h4c6.627 0 12-5.373 12-12v-1.333h21.333a2.667 2.667 0 1 0 0-5.334" fill="#82aa41"/><path d="M450.285 48.8h-75.464v-8a8 8 0 0 0-8-8h-120v-8.945a7.055 7.055 0 0 0-8.911-6.806l-83.746 22.84a4.536 4.536 0 0 0 1.194 8.912h75.464v8a8 8 0 0 0 8 8h120v8.945a7.055 7.055 0 0 0 8.911 6.806l83.746-22.84a4.536 4.536 0 0 0-1.194-8.912" fill="#faa51e"/><path d="M310.821 16.8h-32a8 8 0 0 0 0 16v32c0 8.836 7.164 16 16 16h32v-48c0-8.836-7.164-16-16-16" fill="#f0915a"/><path d="M334.821 80.8h-48a8 8 0 0 0-8 8v72c-17.673 0-32 14.327-32 32s14.327 32 32 32h32c17.673 0 32-14.327 32-32v-104a8 8 0 0 0-8-8" fill="#fab991"/><path d="M342.821 448.8c0-8.189-3.124-16.379-9.373-22.627l-54.627-54.627V272.8c-17.673 0-32-14.327-32-32v-48c0-17.673 14.327-32 32-32h-16c-17.673 0-32 14.327-32 32 0 44.183-35.817 80-80 80v32h64v80a32 32 0 0 0 9.373 22.627l41.373 41.373z" fill="#d7e6f0"/><path d="M342.821 448.8v32c0 8.837-7.163 16-16 16h-80c-8.837 0-16-7.163-16-16 0-17.673 14.327-32 32-32z" fill="#fab991"/></svg>